<?xml version="1.0" encoding="UTF-8"?> <svg xmlns="http://www.w3.org/2000/svg" id="Layer_1" viewBox="0 0 116.41 116.41"><defs><style>.cls-1{fill:#fff;}</style></defs><rect class="cls-1" width="116.41" height="116.41" rx="29.3" ry="29.3"></rect><g><path d="m46.94,65.03l10.09,3.2c-1.55,5.62-4.12,9.8-7.72,12.53-3.6,2.73-8.16,4.1-13.69,4.1-6.84,0-12.47-2.34-16.88-7.01-4.41-4.68-6.61-11.07-6.61-19.18,0-8.58,2.21-15.24,6.64-19.99s10.25-7.12,17.47-7.12c6.3,0,11.43,1.86,15.36,5.59,2.34,2.2,4.1,5.37,5.27,9.49l-10.3,2.46c-.61-2.67-1.88-4.78-3.81-6.33s-4.28-2.32-7.05-2.32c-3.82,0-6.92,1.37-9.3,4.11-2.38,2.74-3.57,7.18-3.57,13.32,0,6.52,1.17,11.16,3.52,13.92,2.34,2.77,5.39,4.15,9.14,4.15,2.77,0,5.14-.88,7.14-2.64,1.99-1.76,3.42-4.52,4.29-8.3Z"></path><path d="m65.08,83.98v-51.54h38.21v8.72h-27.81v11.43h25.88v8.68h-25.88v14.03h28.79v8.68h-39.2Z"></path></g></svg> 